<svg xmlns="http://www.w3.org/2000/svg" xmlns:xlink="http://www.w3.org/1999/xlink" width="49" height="124">
  <defs>
    <path id="a" d="M0 0L48.32 0 48.32 123.57 0 123.57z"/>
  </defs>
  <g fill="none" fill-rule="evenodd">
    <path fill="#FDF25D" d="M4.62776518,0 L4.62776518,114.700795 C4.62776518,117.041089 6.53316696,118.946491 8.87455982,118.946491 L39.4466491,118.946491 C41.788042,118.946491 43.6923455,117.041089 43.6923455,114.700795 L43.6923455,0"/>
    <g>
      <mask id="b" fill="#fff">
        <use xlink:href="#a"/>
      </mask>
      <path fill="#000" d="M39.4467589,123.57217 L8.87466964,123.57217 C3.98102679,123.57217 0,119.592241 0,114.700795 L0,0 L48.3214286,0 L48.3214286,114.700795 C48.3214286,119.592241 44.3404018,123.57217 39.4467589,123.57217 M4.627875,0 L4.627875,114.700795 C4.627875,117.041089 6.53327679,118.945393 8.87466964,118.945393 L39.4467589,118.945393 C41.7881518,118.945393 43.6924554,117.041089 43.6924554,114.700795 L43.6924554,0" mask="url(#b)"/>
    </g>
    <path fill="#000" d="M34.6485509 92.1964071C32.2500509 89.1840054 28.6237473 88.0561393 26.2735688 87.634425L26.0517295 92.7773625C27.5145509 93.1156125 29.3990866 93.8228625 30.6126134 95.3010589 30.8421402 95.6568804 32.5893991 98.5605589 31.2089438 102.115479 30.2765598 104.517273 28.0241223 105.268452 26.5349438 105.497979 26.3032205 98.5978982 24.7975688 95.3867196 24.4263723 94.6937464 21.9466045 89.6375679 18.6497652 89.387175 17.3461848 89.5145679 14.8148009 89.7616661 12.8127563 91.7779875 11.9890955 94.9068 10.6185241 100.111238 12.3844527 103.565121 13.5573455 105.159729 13.7352563 105.402434 13.9164616 105.630863 14.097667 105.8538L11.7474884 107.241943 14.3381759 111.62272 18.239033 109.319764C20.970292 110.760621 23.4346848 110.696925 24.5021491 110.66947 24.5724348 110.667273 24.635033 110.665077 24.6877473 110.665077 24.8986045 110.682648 25.142408 110.69363 25.4114705 110.69363 28.202033 110.69363 33.7886491 109.539407 35.9554259 103.956086 38.4318991 97.5776571 34.8780777 92.5115946 34.7265241 92.2985411L34.6485509 92.1964071zM17.6591759 102.14513C16.8827384 101.089746 16.1238723 99.2019161 16.9134884 96.2026929 17.2275777 95.0067375 17.7283634 94.5916125 17.8403813 94.5795321L17.8480688 94.5795321C18.0095063 94.5795321 18.8979616 94.9650054 19.8753723 96.9758357L19.9522473 97.1229964C20.0741491 97.3700946 21.1833455 99.7576125 21.4260509 105.167416 20.2553545 104.73472 18.9265152 103.866032 17.6591759 102.14513L17.6591759 102.14513zM11.6707232 31.3897098L13.7749018 36.0241741C19.1715268 33.5762545 22.309125 30.0465937 24.1365536 26.8376116 26.0265804 30.2816116 29.2948661 34.0528795 34.9199196 36.2504062L36.7737054 31.5105134C30.78075 29.1680223 28.3064732 24.4632723 27.3081964 21.4442812L36.3289286 21.4442812 36.3289286 16.3551562 26.6701339 16.3551562 26.6701339 11.8634598 21.5788125 11.8634598 21.5788125 16.3551562 12.1056161 16.3551562 12.1056161 21.4442812 20.9978571 21.4442812C20.0731607 24.2622991 17.7032143 28.6529598 11.6707232 31.3897098M36.2797286 65.8853893L33.4089964 65.8853893 33.4089964 62.7203357 28.317675 62.7203357 28.317675 65.5328625C28.2726482 65.7612911 28.0859518 66.1423714 27.2886482 65.6251125 27.2194607 65.5800857 27.1546661 65.5427464 27.0953625 65.5108982 25.6028893 64.4028 23.4185411 62.6291839 21.5768357 61.0466571L18.2580321 64.9068804C18.6566839 65.2506214 19.0388625 65.5756929 19.4045679 65.8853893L12.0992464 65.8853893 12.0992464 70.9756125 26.1443089 70.9756125C26.1893357 70.9997732 26.2310679 71.0217375 26.2738982 71.0448L26.2409518 71.0733536C30.1516929 75.488175 30.8776125 77.6900946 30.9863357 78.5499964 30.9544875 78.9189964 30.6447911 79.3978179 29.2698268 79.4845768 29.2412732 79.4867732 29.2149161 79.4889696 29.1863625 79.4911661 29.0666571 79.4955589 28.9447554 79.4944607 28.8272464 79.4878714L18.5238 79.4823804 18.4677911 79.4823804C18.1998268 79.4889696 15.7925411 79.5965946 13.9640143 81.5316482 13.0415143 82.5068625 11.9630679 84.2958536 12.0684964 87.2709161L17.1565232 87.0930054C17.1005143 85.5170679 17.5881214 84.6703446 18.6061661 84.5726036L28.5889339 84.5726036C29.455425 84.6121393 33.8812286 84.6505768 35.5538089 81.2439161 36.8321304 78.6411482 35.9337911 75.3289339 32.7259071 70.9756125L36.2797286 70.9756125 36.2797286 65.8853893z"/>
    <path fill="#000" d="M14.0977768,54.1953375 L11.7475982,55.5834804 L14.3382857,59.9653554 L18.2380446,57.6613018 C20.9682054,59.1032571 23.4325982,59.0395607 24.5022589,59.0121054 C24.5725446,59.0088107 24.6351429,59.0066143 24.6878571,59.0066143 C24.8987143,59.0252839 25.1425179,59.0362661 25.4115804,59.0362661 C28.2021429,59.0362661 33.7887589,57.8820429 35.9555357,52.2976232 C38.4320089,45.9202929 34.8781875,40.8520339 34.7255357,40.6400786 L34.6486607,40.5379446 C32.2501607,37.5255429 28.6227589,36.398775 26.2736786,35.9759625 L26.0529375,41.1189 C27.5157589,41.4582482 29.3991964,42.1644 30.6127232,43.6425964 C30.84225,43.9984179 32.5895089,46.9031946 31.2090536,50.4570161 C30.2755714,52.8588107 28.0242321,53.6099893 26.5350536,53.8406143 C26.3033304,46.9383375 24.7976786,43.7271589 24.4264821,43.0352839 C21.9467143,37.9802036 18.649875,37.7287125 17.3462946,37.8561054 C14.8149107,38.1032036 12.8128661,40.119525 11.9892054,43.2483375 C10.6186339,48.452775 12.3834643,51.9066589 13.5574554,53.5023643 C13.7364643,53.7450696 13.9165714,53.9734982 14.0977768,54.1953375 M16.9125,44.5431321 C17.2276875,43.348275 17.727375,42.93315 17.8404911,42.9221679 C17.8426875,42.9210696 17.8459821,42.9210696 17.8492768,42.9210696 C18.0096161,42.9210696 18.8980714,43.3065429 19.8754821,45.3173732 L19.9523571,45.4645339 C20.0731607,45.7105339 21.1834554,48.09915 21.4261607,53.5100518 C20.2543661,53.0762571 18.9255268,52.2086679 17.6592857,50.4877661 C16.8828482,49.4312839 16.1239821,47.5434536 16.9125,44.5431321"/>
  </g>
</svg>
